<?xml version="1.0" standalone="no"?>
<!DOCTYPE svg PUBLIC "-//W3C//DTD SVG 20010904//EN"
 "http://www.w3.org/TR/2001/REC-SVG-20010904/DTD/svg10.dtd">
<svg version="1.0" xmlns="http://www.w3.org/2000/svg"
 width="786.000000pt" height="720.000000pt" viewBox="0 0 786.000000 720.000000"
 preserveAspectRatio="xMidYMid meet">
<metadata>
Created by potrace 1.16, written by Peter Selinger 2001-2019
</metadata>
<g transform="translate(0.000000,720.000000) scale(0.100000,-0.100000)"
fill="#000000" stroke="none">
<path d="M0 3600 c0 -3193 2 -3600 15 -3600 13 0 15 407 15 3600 0 3193 -2
3600 -15 3600 -13 0 -15 -407 -15 -3600z"/>
<path d="M3830 7090 c-14 -5 -52 -16 -85 -26 -59 -17 -158 -46 -264 -78 -29
-9 -60 -16 -67 -16 -8 0 -22 -4 -32 -9 -9 -5 -44 -17 -77 -26 -33 -9 -87 -25
-120 -34 -33 -10 -89 -26 -125 -36 -36 -9 -74 -21 -85 -25 -11 -4 -47 -16 -80
-25 -33 -9 -71 -20 -85 -25 -14 -4 -50 -15 -80 -23 -30 -9 -95 -28 -145 -42
-98 -29 -221 -65 -330 -96 -38 -11 -106 -31 -150 -44 -69 -21 -312 -92 -370
-108 -26 -7 -164 -48 -295 -86 -58 -17 -130 -38 -160 -47 -30 -9 -66 -19 -80
-24 -14 -4 -52 -16 -85 -25 -193 -54 -252 -91 -295 -182 -19 -41 -20 -61 -20
-568 0 -566 0 -567 -53 -623 -48 -52 -69 -56 -283 -62 l-201 -5 -37 -29 c-21
-16 -47 -48 -57 -72 -19 -41 -19 -85 -17 -1297 l3 -1254 28 -41 c33 -47 99
-82 153 -82 20 0 84 -19 143 -41 58 -23 135 -52 171 -66 76 -29 106 -53 131
-108 17 -37 19 -72 19 -408 l0 -368 26 -54 c27 -59 69 -100 124 -123 33 -13
210 -68 395 -122 17 -5 91 -27 165 -50 74 -23 149 -45 165 -50 17 -4 104 -31
195 -58 91 -28 197 -60 235 -71 39 -12 102 -31 140 -43 39 -11 88 -26 110 -33
22 -7 67 -20 100 -30 33 -10 94 -28 135 -40 41 -13 116 -35 165 -50 50 -15
101 -30 115 -35 14 -4 52 -16 85 -25 33 -9 69 -20 80 -25 17 -7 82 -26 200
-60 17 -4 122 -36 235 -70 383 -116 396 -120 450 -120 46 0 115 17 295 71 55
17 152 46 215 66 63 19 126 38 140 43 14 4 52 16 85 25 33 10 94 28 135 40 41
13 116 36 165 50 196 59 341 103 450 136 39 11 90 27 115 34 25 7 99 30 165
50 66 20 156 47 200 60 44 12 141 41 215 64 74 23 173 53 220 67 47 14 130 39
185 56 114 35 194 59 280 84 33 9 64 21 69 26 6 4 17 8 26 8 27 0 98 57 127
102 l28 43 5 390 c3 260 9 398 17 416 20 46 62 86 105 102 24 8 104 38 178 66
74 28 149 51 167 51 32 0 83 15 93 28 3 4 14 12 25 18 11 5 30 30 43 55 l22
44 -2 1260 c-3 1204 -4 1261 -21 1290 -11 17 -35 42 -55 55 -34 24 -44 25
-236 30 -165 4 -207 9 -233 23 -41 22 -78 71 -92 122 -7 26 -11 214 -11 555 0
574 1 557 -71 628 -49 48 -90 65 -339 135 -30 9 -95 28 -145 42 -49 15 -121
36 -160 47 -38 11 -106 31 -150 44 -190 56 -294 87 -360 105 -38 11 -81 24
-95 28 -14 5 -50 16 -80 25 -30 8 -86 25 -125 37 -38 11 -95 27 -125 35 -30 8
-92 26 -137 40 -121 36 -230 69 -388 114 -77 22 -171 50 -210 62 -38 11 -83
24 -100 29 -16 4 -100 28 -185 53 -85 25 -186 55 -225 67 -38 11 -91 27 -117
35 -50 15 -158 18 -198 4z m262 -60 c107 -31 204 -60 349 -104 47 -14 91 -26
97 -26 7 0 20 -4 30 -9 9 -5 46 -17 82 -27 64 -17 117 -32 275 -79 44 -13 107
-32 140 -41 33 -9 94 -27 135 -39 41 -13 102 -30 135 -40 104 -29 187 -53 295
-86 58 -17 137 -40 175 -51 39 -11 81 -24 95 -28 14 -5 52 -16 85 -25 33 -9
71 -21 85 -25 14 -5 52 -16 85 -25 33 -10 96 -28 140 -41 253 -75 431 -127
513 -149 99 -28 150 -66 183 -139 17 -38 19 -77 19 -567 0 -570 -1 -561 56
-628 14 -17 31 -31 37 -31 6 0 19 -8 30 -17 16 -16 47 -19 222 -23 223 -5 230
-7 279 -74 21 -27 21 -30 21 -1284 l0 -1257 -23 -33 c-29 -40 -70 -62 -118
-62 -33 0 -308 -97 -393 -138 -43 -22 -85 -73 -100 -121 -7 -26 -11 -158 -11
-400 0 -348 -1 -363 -21 -407 -38 -81 -87 -109 -284 -164 -16 -5 -91 -27 -165
-50 -74 -23 -148 -46 -165 -50 -16 -5 -68 -21 -115 -35 -83 -26 -154 -48 -215
-65 -59 -17 -132 -39 -250 -75 -66 -20 -156 -47 -200 -60 -105 -31 -387 -116
-495 -150 -47 -15 -94 -29 -105 -32 -39 -11 -212 -62 -345 -103 -74 -23 -148
-46 -165 -50 -16 -5 -55 -16 -85 -25 -30 -9 -68 -20 -85 -25 -16 -4 -68 -20
-115 -35 -47 -14 -107 -33 -135 -42 -76 -23 -195 -28 -252 -10 -26 8 -86 26
-133 41 -47 14 -146 44 -220 67 -74 22 -173 52 -220 66 -121 35 -165 48 -245
73 -75 23 -255 77 -370 112 -38 11 -88 26 -110 33 -22 7 -67 20 -100 30 -33
10 -96 28 -140 42 -44 13 -118 35 -165 49 -47 14 -96 29 -110 34 -14 4 -52 16
-85 25 -33 10 -94 28 -135 40 -135 42 -204 62 -265 80 -33 9 -71 21 -85 25
-14 5 -70 22 -125 38 -391 119 -406 125 -445 202 -18 35 -20 66 -22 417 -3
339 -5 382 -21 418 -22 49 -62 92 -102 110 -101 46 -339 129 -385 134 -64 8
-94 24 -120 67 -19 30 -20 65 -20 1277 -1 1371 -4 1291 61 1338 32 23 43 24
234 29 183 5 203 7 235 27 48 29 76 61 97 108 16 36 18 88 23 586 l5 546 28
37 c38 49 89 81 162 101 71 19 103 28 170 49 66 20 222 65 260 76 17 5 55 16
85 25 89 26 112 33 160 45 25 7 54 15 65 20 11 4 47 16 80 25 96 27 206 59
452 132 49 14 124 36 168 49 101 29 220 64 355 105 58 17 123 35 145 40 21 6
73 21 115 33 80 25 177 54 275 82 33 9 69 20 80 24 11 4 49 16 85 25 36 10 99
29 140 41 231 72 250 73 422 24z"/>
<path d="M3825 6906 c-38 -13 -176 -54 -305 -91 -129 -37 -269 -78 -310 -90
-41 -13 -109 -33 -150 -45 -41 -12 -109 -32 -150 -44 -41 -13 -104 -31 -140
-40 -36 -10 -73 -22 -82 -27 -10 -5 -24 -9 -33 -9 -8 0 -34 -6 -57 -14 -80
-25 -193 -59 -223 -67 -31 -7 -286 -83 -410 -121 -38 -11 -83 -25 -100 -29
-16 -4 -68 -19 -115 -32 -210 -62 -297 -87 -325 -96 -16 -5 -68 -21 -115 -35
-47 -14 -130 -38 -185 -55 -55 -16 -112 -33 -127 -37 l-28 -6 0 -689 0 -689
-317 -2 -318 -3 -5 -68 c-3 -38 -2 -73 1 -78 3 -5 1464 -8 3595 -7 l3589 3 0
75 0 75 -317 3 -318 2 0 678 c0 372 -4 683 -9 690 -4 7 -32 20 -62 28 -76 22
-106 30 -169 49 -30 9 -68 20 -85 25 -16 5 -68 20 -115 33 -47 14 -123 37
-170 50 -171 51 -257 76 -360 105 -58 17 -125 37 -150 45 -25 8 -72 22 -105
32 -151 43 -315 91 -445 130 -41 12 -100 29 -130 38 -72 21 -219 64 -295 87
-33 10 -85 25 -115 34 -30 9 -179 52 -330 97 -151 44 -297 87 -325 95 -85 25
-116 25 -190 0z m162 -161 c26 -9 73 -23 103 -32 30 -9 64 -19 75 -23 11 -4
36 -12 55 -17 19 -6 76 -23 125 -38 50 -15 128 -38 175 -52 47 -14 119 -36
160 -49 67 -21 224 -68 320 -96 19 -6 44 -14 55 -18 11 -5 47 -16 80 -25 33
-9 78 -23 100 -30 22 -7 60 -18 85 -24 25 -7 54 -16 65 -20 11 -5 49 -16 85
-26 36 -9 73 -21 82 -26 10 -5 27 -9 37 -9 11 0 23 -4 26 -10 3 -5 15 -10 25
-10 10 0 60 -13 110 -30 50 -16 98 -30 106 -30 8 0 22 -4 32 -9 25 -13 121
-41 143 -41 10 0 21 -4 24 -10 3 -5 15 -10 26 -10 10 0 27 -4 37 -9 9 -6 44
-17 77 -26 33 -10 71 -21 85 -25 14 -5 52 -16 85 -25 33 -9 69 -21 80 -25 41
-16 128 -40 146 -40 10 0 21 -4 24 -10 3 -5 15 -10 26 -10 19 0 19 -11 17
-622 l-3 -623 -75 0 -75 0 -3 551 -2 551 -26 11 c-14 7 -32 12 -40 12 -8 0
-22 4 -32 9 -9 6 -44 17 -77 27 -33 9 -94 27 -135 40 -41 13 -80 24 -87 24 -7
0 -21 4 -31 9 -9 6 -44 17 -77 26 -33 10 -71 21 -85 25 -14 5 -86 27 -160 50
-74 23 -146 45 -160 49 -14 5 -52 16 -85 26 -33 9 -69 21 -80 25 -11 4 -47 15
-80 25 -33 9 -69 21 -80 25 -38 15 -127 40 -141 40 -8 0 -22 4 -32 9 -9 5 -44
17 -77 26 -33 10 -68 21 -77 26 -10 5 -24 9 -32 9 -8 0 -63 16 -123 34 -59 19
-155 49 -213 66 -58 18 -130 40 -160 50 -30 10 -82 26 -115 35 -33 9 -69 20
-80 24 -57 21 -125 41 -142 41 -10 0 -23 4 -29 8 -5 5 -36 16 -69 26 -55 16
-64 16 -104 2 -24 -9 -52 -16 -62 -16 -11 0 -19 -4 -19 -10 0 -5 -8 -10 -18
-10 -10 0 -53 -11 -97 -25 -44 -14 -105 -33 -135 -42 -30 -8 -64 -19 -75 -23
-11 -5 -47 -16 -80 -25 -33 -10 -107 -33 -164 -51 -58 -19 -113 -34 -122 -34
-10 0 -21 -4 -24 -10 -3 -5 -15 -10 -25 -10 -11 0 -52 -11 -92 -24 -40 -13
-100 -31 -133 -41 -33 -9 -69 -21 -80 -25 -11 -5 -47 -16 -80 -25 -33 -9 -69
-21 -80 -25 -19 -7 -53 -17 -235 -70 -41 -12 -83 -26 -92 -31 -10 -5 -24 -9
-32 -9 -16 0 -172 -47 -196 -60 -9 -4 -31 -11 -50 -14 -19 -4 -44 -11 -55 -15
-11 -5 -47 -17 -80 -26 -33 -10 -85 -26 -115 -36 -30 -9 -95 -29 -145 -44
-105 -31 -179 -54 -217 -68 l-28 -9 -2 -552 -3 -551 -72 -3 -73 -3 0 626 c0
612 0 625 19 625 11 0 23 5 26 10 3 6 14 10 23 10 10 0 73 18 141 40 68 22
132 40 142 40 10 0 21 5 24 10 3 6 17 10 30 10 13 0 27 5 30 10 3 6 15 10 25
10 10 0 54 11 97 25 43 13 105 32 138 41 33 9 64 21 69 26 6 4 18 8 27 8 19 0
116 28 139 40 9 4 31 11 50 15 19 3 60 15 90 25 30 10 82 26 115 35 33 9 71
21 85 25 36 12 175 55 245 75 33 10 93 28 133 41 40 13 81 24 92 24 10 0 22 5
25 10 3 6 17 10 30 10 13 0 26 4 29 9 3 5 23 12 43 15 21 4 63 15 93 25 56 19
107 35 215 65 33 10 69 21 80 25 20 8 45 16 150 46 119 35 220 67 240 75 51
23 92 24 152 5z"/>
<path d="M5635 4400 c-615 -4 -880 -9 -905 -17 -36 -12 -123 -38 -175 -53 -16
-5 -70 -20 -120 -35 -109 -32 -190 -54 -230 -65 -16 -4 -61 -17 -100 -29 -38
-12 -86 -26 -105 -31 -19 -5 -72 -21 -117 -35 -45 -14 -88 -25 -96 -25 -21 0
-41 -29 -61 -90 -19 -58 -32 -93 -47 -122 -5 -10 -9 -24 -9 -33 0 -8 -10 -17
-22 -19 -13 -3 -250 -10 -528 -16 -506 -12 -789 -22 -1125 -39 -146 -7 -183
-6 -194 5 -10 9 -11 17 -4 26 6 7 14 33 18 58 11 66 20 78 83 106 31 14 76 34
99 45 24 10 45 19 48 19 4 0 25 9 48 19 23 10 76 34 117 52 l75 33 515 7 c283
4 598 10 700 14 l185 7 177 87 c98 47 178 91 178 97 0 8 -82 10 -277 7 -153
-2 -681 -8 -1173 -13 -722 -7 -906 -11 -950 -23 -80 -21 -302 -99 -598 -211
-268 -101 -281 -112 -306 -248 -9 -51 -21 -115 -26 -143 -34 -173 -37 -226
-15 -245 15 -13 133 -7 450 20 50 4 169 13 265 19 96 6 194 16 218 21 23 6 74
10 112 10 38 0 113 5 167 10 300 31 1510 69 2198 69 679 0 1905 -39 2190 -69
55 -6 163 -12 240 -13 125 -1 144 1 175 19 63 37 115 172 108 281 -4 62 -6 68
-43 99 l-40 33 28 10 c16 6 34 11 41 11 32 0 63 40 75 97 7 32 17 69 21 83 37
112 33 160 -16 199 -25 20 -36 21 -203 19 -97 -2 -567 -5 -1046 -8z m123 -197
l294 -6 -7 -36 c-13 -67 10 -64 -420 -60 l-391 4 -55 -24 c-30 -13 -77 -35
-106 -48 -28 -13 -57 -23 -62 -23 -6 0 -11 -4 -11 -10 0 -5 17 -10 38 -11 20
0 235 -4 477 -8 242 -5 448 -11 457 -16 14 -5 15 -11 8 -25 -6 -10 -10 -30
-10 -43 0 -14 -6 -29 -12 -34 -8 -6 -149 -7 -383 -1 -203 4 -511 11 -683 14
l-314 6 7 35 c3 20 10 43 14 52 29 59 43 76 68 84 15 5 37 12 48 17 11 5 79
28 150 51 72 22 139 45 150 49 11 5 29 12 40 16 61 23 250 28 703 17z"/>
<path d="M3260 3478 c-125 -35 -123 -34 -195 -128 -28 -36 -63 -83 -78 -106
-15 -22 -36 -50 -47 -62 -11 -12 -20 -24 -20 -27 0 -3 -21 -36 -47 -73 -77
-109 -78 -112 -56 -133 17 -17 38 -17 418 -8 432 11 528 12 1001 4 267 -5 315
-3 348 10 43 18 126 91 126 111 0 7 6 17 13 21 6 4 25 26 42 48 16 22 33 45
37 50 5 6 27 35 50 65 24 30 45 57 49 60 3 3 14 20 24 38 11 17 23 32 27 32
15 0 8 37 -9 52 -10 9 -40 19 -68 23 -156 21 -1551 42 -1615 23z m1033 -139
c7 -11 2 -26 -19 -59 -16 -23 -33 -51 -39 -61 -5 -11 -13 -19 -16 -19 -4 0
-19 -20 -33 -44 -50 -86 -50 -86 -403 -86 -364 0 -359 -1 -305 82 54 86 118
175 136 190 19 16 50 18 345 15 281 -2 325 -4 334 -18z"/>
<path d="M2725 3459 c-44 -5 -197 -13 -340 -19 -143 -6 -316 -15 -385 -19 -69
-5 -199 -13 -290 -19 -91 -6 -201 -16 -245 -22 -81 -10 -147 -16 -290 -26 -68
-5 -84 -9 -107 -32 -16 -14 -28 -31 -28 -38 0 -7 -4 -14 -8 -16 -4 -1 -34 -46
-67 -98 -32 -52 -62 -97 -65 -100 -4 -3 -10 -12 -13 -20 -4 -8 -16 -28 -26
-45 -23 -35 -26 -49 -8 -38 6 4 64 14 127 21 104 12 164 20 300 37 217 28 206
27 565 60 94 8 194 18 223 21 57 6 60 3 37 -42 -37 -74 -58 -88 -136 -96 -41
-4 -110 -12 -154 -18 -44 -5 -143 -16 -220 -25 -153 -17 -176 -20 -510 -65
-49 -6 -104 -16 -121 -21 -17 -5 -49 -9 -72 -9 -22 0 -43 -4 -46 -8 -3 -5 -20
-7 -38 -6 -40 3 -83 -26 -93 -63 -3 -15 -16 -40 -27 -55 -11 -16 -18 -31 -16
-33 3 -4 53 4 173 25 94 17 240 41 300 51 33 5 85 14 115 19 30 6 107 17 170
25 63 9 142 20 175 25 33 5 119 15 190 21 72 6 138 15 147 20 10 5 41 9 68 9
28 0 81 5 118 10 37 6 126 15 197 20 235 17 273 30 332 110 19 25 38 50 43 57
6 7 10 15 10 18 0 8 51 78 63 86 5 3 7 21 5 40 l-3 34 -120 -2 c-147 -2 -587
-32 -690 -46 -16 -2 -92 -8 -168 -12 -76 -4 -140 -12 -143 -16 -3 -5 -37 -9
-76 -9 -78 0 -74 -7 -40 78 10 26 25 44 37 47 94 19 486 45 1110 74 121 5 221
10 221 10 1 1 20 26 43 56 l42 55 -93 -1 c-51 -1 -129 -6 -173 -10z"/>
<path d="M5185 3426 c-74 -28 -81 -34 -160 -141 -32 -44 -64 -85 -69 -92 -6
-6 -29 -36 -51 -67 -22 -31 -43 -56 -47 -56 -4 0 -8 -5 -8 -11 0 -6 -11 -25
-25 -43 -30 -40 -31 -57 -4 -82 17 -15 43 -20 133 -26 290 -18 478 -34 621
-53 22 -3 87 -10 145 -15 58 -5 119 -12 135 -16 17 -3 62 -10 100 -15 126 -15
309 -40 370 -50 33 -5 100 -12 148 -15 119 -8 147 6 220 107 52 72 197 293
197 301 0 4 3 8 8 8 11 0 42 59 42 82 0 47 -23 53 -275 77 -55 6 -138 15 -185
20 -205 26 -337 38 -575 54 -110 7 -207 16 -215 20 -15 6 -181 16 -375 21 -58
2 -113 -2 -130 -8z m690 -156 c22 -5 85 -12 140 -15 55 -4 136 -12 180 -18 79
-12 80 -12 83 -43 2 -20 -4 -36 -18 -49 -11 -10 -20 -21 -20 -25 0 -11 -83
-134 -92 -138 -4 -2 -8 -9 -8 -15 0 -7 -14 -18 -31 -26 -31 -14 -50 -13 -214
10 -38 5 -140 16 -225 24 -182 16 -224 25 -228 46 -2 9 18 47 43 84 25 37 45
72 45 76 0 5 3 9 8 9 4 0 16 15 26 34 29 54 65 66 176 60 52 -3 113 -9 135
-14z"/>
<path d="M3385 2779 c-236 -8 -443 -22 -700 -45 -227 -21 -528 -56 -635 -74
-30 -5 -102 -17 -160 -25 -58 -9 -125 -20 -150 -25 -25 -5 -85 -16 -135 -25
-49 -9 -106 -21 -125 -26 -19 -4 -89 -20 -155 -35 -254 -56 -679 -185 -830
-253 l-60 -27 115 -45 c63 -25 176 -65 250 -88 74 -24 142 -46 150 -50 13 -7
15 -73 18 -487 2 -367 5 -480 15 -486 12 -8 45 -18 257 -82 124 -37 306 -92
355 -107 27 -8 183 -55 365 -110 36 -11 101 -31 145 -44 44 -13 118 -36 165
-49 47 -14 146 -44 220 -66 74 -23 149 -46 165 -51 17 -5 89 -26 160 -48 72
-22 171 -52 220 -67 203 -60 403 -120 445 -134 14 -4 59 -18 100 -30 41 -12
93 -28 115 -35 22 -7 67 -20 100 -30 33 -9 70 -21 83 -26 33 -13 51 -11 118
10 32 10 100 31 149 45 50 15 132 40 184 57 51 16 100 29 107 29 8 0 22 4 32
9 9 5 33 13 52 19 87 26 254 77 356 108 61 19 116 34 123 34 6 0 19 4 29 9 9
5 44 17 77 26 33 10 80 24 105 32 25 8 68 21 95 28 28 7 88 25 135 40 176 55
385 118 445 135 17 4 91 27 165 50 74 23 149 46 165 50 17 5 107 32 200 60 94
28 190 58 215 65 189 56 226 68 238 77 9 8 12 118 12 489 l0 478 73 22 c144
43 422 144 440 160 16 12 -311 136 -490 185 -32 9 -71 19 -88 24 -206 56 -507
125 -655 150 -30 5 -111 18 -180 29 -69 11 -152 25 -185 31 -33 5 -116 17
-185 25 -69 8 -161 19 -205 25 -81 10 -313 30 -575 50 -380 28 -972 36 -1445
19z m-1335 -324 c6 -3 10 -21 10 -38 l0 -33 -110 1 c-146 0 -145 1 -145 -150
0 -102 2 -117 21 -135 23 -23 80 -36 119 -26 24 6 26 10 23 59 -3 51 -4 52
-38 57 -32 5 -35 8 -35 40 l0 35 83 3 82 3 0 -130 0 -130 -56 -7 c-78 -9 -215
0 -242 17 -44 28 -57 74 -57 209 0 105 3 131 20 165 29 58 87 77 218 71 54 -3
102 -8 107 -11z m200 -175 l5 -184 26 -15 c41 -23 121 -5 130 29 4 14 7 101 8
193 l1 168 48 -3 47 -3 3 -125 c5 -194 -4 -265 -38 -303 l-28 -32 -120 0
c-112 0 -122 2 -145 23 -16 15 -28 43 -36 79 -12 62 -15 345 -4 357 4 4 28 6
53 4 l45 -3 5 -185z m641 110 c14 -41 49 -143 77 -227 29 -83 52 -154 52 -158
0 -3 -23 -5 -51 -3 -52 3 -52 3 -65 47 -7 24 -19 48 -26 52 -16 11 -149 11
-164 1 -6 -4 -18 -27 -26 -52 -14 -44 -16 -45 -61 -48 -34 -2 -47 1 -47 10 0
7 32 105 71 218 39 113 73 213 76 223 5 15 15 17 72 15 l66 -3 26 -75z m350
-50 c46 -71 87 -130 91 -130 4 0 9 57 10 128 l3 127 45 0 45 0 3 -233 2 -233
-52 3 -52 3 -82 129 c-45 70 -87 133 -93 139 -8 8 -11 -29 -11 -132 l0 -142
-47 3 -48 3 -2 225 c-1 123 1 228 3 232 3 4 27 8 53 8 l48 0 84 -130z m537
103 c6 -16 34 -98 62 -183 29 -85 55 -164 60 -175 5 -11 13 -35 19 -52 l10
-33 -52 0 -52 0 -13 42 c-8 24 -18 49 -24 55 -12 15 -145 18 -166 4 -7 -4 -19
-28 -26 -52 l-13 -44 -53 -3 c-47 -3 -52 -1 -46 15 4 10 32 92 62 183 30 91
59 173 64 182 6 10 10 22 10 27 0 5 4 21 10 35 9 24 14 26 74 26 60 0 64 -1
74 -27z m477 17 c22 -8 26 -15 23 -42 l-3 -33 -70 3 c-93 5 -121 -7 -134 -55
-14 -49 -14 -157 -1 -205 9 -33 16 -39 53 -49 23 -6 68 -9 100 -6 l57 5 0 -33
c0 -40 -13 -45 -125 -45 -95 0 -140 18 -169 69 -17 29 -19 52 -19 162 1 159
14 195 83 221 50 19 164 23 205 8z m412 -210 c40 -118 75 -223 79 -232 5 -16
-2 -18 -49 -18 l-55 0 -7 40 c-10 60 -25 70 -108 70 -40 0 -77 -4 -82 -8 -14
-10 -35 -59 -35 -82 0 -17 -7 -20 -50 -20 -33 0 -50 4 -50 13 0 11 118 368
142 430 10 27 13 28 76 25 l66 -3 73 -215z m397 214 c46 -7 46 -7 46 -45 l0
-37 -93 5 c-110 7 -137 -3 -137 -48 0 -35 21 -46 107 -53 121 -10 147 -37 141
-151 -3 -66 -7 -78 -31 -102 -25 -26 -34 -28 -129 -31 -57 -2 -119 0 -138 5
-30 8 -35 14 -38 41 l-3 32 90 -7 c119 -8 151 4 151 57 0 42 2 41 -105 55
-114 15 -150 55 -143 156 5 64 23 93 73 115 32 14 133 18 209 8z m466 -39 l0
-45 -65 0 -65 0 0 -190 0 -190 -50 0 -50 0 0 190 0 189 -67 3 -68 3 -3 43 -3
42 185 0 186 0 0 -45z m368 11 c2 -16 -2 -32 -10 -37 -7 -5 -59 -9 -115 -9
l-103 0 0 -54 c0 -65 3 -67 108 -62 77 3 86 -1 86 -44 0 -25 -1 -25 -97 -28
l-97 -3 0 -58 c0 -44 4 -60 16 -65 9 -3 60 -6 115 -6 l99 0 0 -35 0 -35 -165
0 -165 0 0 228 c0 126 3 232 7 236 4 3 77 5 162 4 l156 -3 3 -29z m760 -836
c-3 -376 -3 -385 -23 -388 -11 -2 -29 -7 -40 -12 -17 -7 -163 -52 -265 -81
-19 -6 -44 -14 -55 -19 -11 -5 -45 -16 -75 -25 -30 -9 -104 -31 -165 -50 -60
-19 -150 -47 -200 -61 -49 -15 -94 -31 -99 -36 -6 -4 -18 -8 -27 -8 -16 0
-190 -52 -234 -70 -11 -4 -47 -16 -80 -25 -33 -9 -85 -25 -115 -35 -30 -10
-102 -32 -160 -50 -166 -51 -174 -54 -184 -62 -6 -4 -18 -8 -28 -8 -10 0 -50
-11 -90 -24 -60 -20 -222 -70 -373 -117 -72 -22 -299 -93 -397 -125 -116 -36
-134 -39 -170 -25 -13 5 -50 17 -83 26 -33 9 -69 21 -80 25 -46 19 -219 70
-236 70 -10 0 -21 5 -24 10 -3 6 -15 10 -26 10 -10 0 -27 4 -37 10 -9 5 -57
21 -107 36 -49 15 -128 40 -175 55 -47 15 -105 32 -130 38 -25 7 -54 16 -65
20 -25 10 -95 32 -210 66 -49 15 -99 30 -110 35 -37 15 -127 40 -144 40 -9 0
-21 4 -26 8 -6 5 -37 17 -70 26 -33 10 -85 26 -115 36 -93 31 -192 61 -265 81
-38 11 -79 24 -90 29 -18 8 -85 29 -245 76 -30 9 -64 20 -75 25 -11 4 -47 15
-80 25 -33 9 -69 20 -80 24 -56 21 -186 60 -199 60 -14 0 -16 50 -18 381 -2
210 0 386 3 391 4 7 28 6 70 -3 l64 -14 5 -315 c5 -305 6 -315 25 -318 11 -2
65 -18 120 -36 55 -18 141 -45 190 -61 50 -15 122 -38 160 -50 39 -12 117 -37
175 -55 58 -18 130 -40 160 -50 30 -10 116 -37 190 -60 74 -22 143 -45 152
-50 10 -6 23 -10 30 -10 12 0 260 -75 293 -90 11 -4 47 -16 80 -25 33 -9 69
-20 80 -25 11 -4 47 -15 80 -25 33 -9 68 -20 77 -26 10 -5 27 -9 37 -9 11 0
23 -5 26 -10 3 -6 15 -10 25 -10 18 0 90 -21 135 -39 11 -5 47 -16 80 -26 33
-9 69 -21 80 -25 11 -4 47 -15 80 -25 33 -9 69 -21 80 -26 11 -4 47 -15 80
-25 33 -9 69 -20 80 -25 68 -28 84 -25 390 75 55 18 127 41 160 50 33 10 69
21 80 26 20 8 146 47 245 76 30 9 64 19 75 24 25 10 63 22 140 45 33 9 69 21
80 25 11 4 47 16 80 25 33 10 69 21 80 26 11 4 47 15 80 24 33 9 69 21 80 25
33 15 281 90 293 90 7 0 20 4 30 10 9 5 78 28 152 50 74 23 160 50 190 60 30
10 102 32 160 50 196 60 325 102 340 110 13 6 16 55 20 316 l5 309 60 16 c33
8 63 13 68 9 4 -3 6 -179 5 -390z m-5123 321 c55 -12 123 -25 150 -31 28 -5
93 -17 145 -25 52 -9 120 -20 150 -25 50 -8 174 -25 370 -50 75 -10 282 -30
505 -49 604 -53 1543 -49 2250 9 201 17 611 65 755 89 30 6 100 17 155 26 55
10 168 31 250 47 83 17 167 33 188 35 l37 5 0 -294 0 -293 -27 -11 c-16 -6
-68 -24 -118 -39 -49 -15 -99 -31 -110 -35 -11 -5 -47 -16 -80 -25 -33 -9 -69
-21 -80 -25 -11 -5 -47 -16 -80 -25 -33 -9 -69 -21 -80 -25 -11 -5 -81 -27
-155 -50 -74 -23 -144 -45 -155 -49 -11 -5 -47 -16 -80 -26 -33 -9 -69 -21
-80 -25 -11 -5 -47 -16 -80 -25 -33 -9 -69 -20 -80 -25 -19 -7 -63 -21 -270
-85 -49 -15 -99 -31 -110 -35 -17 -7 -162 -52 -265 -82 -19 -6 -44 -14 -55
-19 -11 -4 -47 -15 -80 -25 -33 -9 -64 -21 -69 -26 -6 -4 -17 -8 -26 -8 -8 0
-49 -11 -90 -24 -41 -13 -136 -43 -210 -66 -74 -22 -145 -46 -157 -52 -23 -11
-47 -6 -193 42 -30 10 -82 26 -115 36 -33 9 -64 21 -69 26 -6 4 -17 8 -25 8
-14 0 -251 72 -296 90 -21 8 -148 47 -245 76 -30 9 -64 19 -75 24 -11 4 -60
20 -110 35 -49 15 -99 31 -110 36 -11 4 -47 15 -80 25 -33 9 -69 20 -80 24
-19 8 -196 64 -370 117 -44 14 -89 28 -100 33 -11 4 -36 12 -55 18 -108 32
-308 95 -325 102 -11 5 -36 12 -55 16 -19 3 -41 10 -50 14 -8 5 -55 21 -105
36 -49 15 -102 32 -117 38 l-28 11 0 294 0 294 43 -6 c23 -3 87 -15 142 -26z"/>
<path d="M2337 1644 c-97 -19 -187 -54 -187 -71 0 -10 6 -13 18 -8 137 54 320
61 470 19 72 -20 188 -64 272 -102 36 -17 112 -51 170 -77 58 -26 119 -53 135
-60 175 -80 389 -105 545 -66 126 32 125 31 137 98 6 32 10 59 8 61 -1 2 -20
-3 -41 -11 -136 -49 -262 -65 -383 -48 -47 7 -99 17 -116 22 -16 5 -59 17 -95
28 -55 16 -254 90 -325 121 -11 5 -42 16 -70 25 -27 10 -59 21 -70 25 -74 29
-250 60 -335 59 -36 -1 -96 -7 -133 -15z"/>
<path d="M5200 1639 c-47 -10 -98 -21 -115 -24 -16 -4 -39 -10 -50 -15 -137
-55 -409 -155 -480 -177 -93 -28 -230 -53 -295 -53 -62 0 -182 23 -257 49 -79
27 -85 27 -74 -1 5 -13 14 -41 20 -63 6 -22 20 -74 32 -115 11 -41 27 -102 35
-135 8 -33 19 -77 25 -97 5 -21 13 -55 18 -75 16 -65 40 -145 44 -149 9 -9
237 -5 254 4 10 5 35 12 56 16 21 4 68 23 105 41 37 19 72 35 78 35 7 0 14 7
18 15 3 8 10 15 17 15 20 0 69 41 62 52 -4 7 -1 9 9 6 12 -5 110 58 178 115 8
6 35 28 60 47 25 19 47 38 48 42 2 5 8 8 13 8 5 0 40 23 78 50 38 28 74 50 80
50 6 0 11 5 11 10 0 6 4 10 10 10 5 0 31 13 57 29 27 16 65 35 86 42 20 7 37
17 37 21 0 4 11 8 25 8 14 0 33 4 43 10 30 16 125 26 205 20 74 -5 77 -4 77
16 0 28 -31 35 -184 41 -76 3 -123 0 -129 -6 -6 -6 -20 -11 -31 -11 -53 0
-343 -135 -339 -158 2 -6 -3 -9 -11 -6 -8 3 -17 1 -21 -5 -3 -6 -15 -11 -26
-11 -10 0 -19 -3 -19 -8 0 -4 -33 -27 -72 -52 -40 -24 -75 -47 -78 -50 -3 -3
-18 -12 -35 -21 -16 -10 -55 -31 -85 -49 -30 -17 -63 -34 -72 -37 -10 -3 -18
-9 -18 -14 0 -5 -10 -9 -22 -9 -19 0 -20 -2 -8 -10 11 -8 8 -9 -11 -4 -15 3
-30 1 -33 -5 -4 -6 -17 -11 -30 -11 -12 0 -26 -3 -30 -7 -16 -17 -88 -34 -163
-40 l-83 -6 0 25 c0 13 7 33 15 44 23 30 18 43 -32 98 l-48 51 120 6 c66 4
134 10 150 14 98 24 202 68 425 179 102 51 201 98 220 105 19 8 49 20 65 26
163 67 341 84 498 46 l78 -19 -3 21 c-4 26 -87 60 -202 82 -104 19 -188 18
-296 -6z"/>
<path d="M2300 1565 c-106 -18 -148 -33 -161 -56 -15 -30 -4 -35 46 -21 57 15
210 16 272 1 89 -22 188 -61 288 -116 120 -64 249 -143 253 -155 2 -4 8 -8 13
-8 5 0 44 -22 87 -48 123 -77 227 -124 352 -159 71 -20 261 -22 312 -3 39 14
45 23 59 80 4 19 13 55 19 79 12 51 8 58 -23 44 -68 -32 -238 -43 -351 -22
-99 19 -236 74 -486 197 -129 63 -244 119 -255 123 -11 4 -34 12 -52 19 -17 6
-49 16 -70 21 -38 9 -225 40 -227 38 -1 -1 -35 -7 -76 -14z"/>
<path d="M2183 1467 c-46 -9 -53 -14 -53 -34 0 -20 3 -21 26 -13 86 33 297
-10 440 -91 79 -44 285 -186 304 -209 18 -22 300 -216 363 -250 144 -78 299
-118 408 -105 61 7 73 15 82 55 3 14 10 42 15 64 l10 38 -31 -6 c-109 -22
-229 -15 -337 21 -55 18 -191 83 -245 117 -22 14 -47 29 -55 33 -8 4 -69 44
-135 88 -233 159 -373 236 -485 268 -137 38 -205 44 -307 24z"/>
</g>
</svg>
